HIERARCHY
ROOT Hips
{
	OFFSET -0.001795 -0.223333 0.028219
	CHANNELS 6 Xposition Yposition Zposition Zrotation Yrotation Xrotation 
	JOINT LeftUpLeg
	{
		OFFSET 0.069520 -0.091406 -0.006815
		CHANNELS 3 Zrotation Yrotation Xrotation
		JOINT LeftLeg
		{
			OFFSET 0.034277 -0.375199 -0.004496
			CHANNELS 3 Zrotation Yrotation Xrotation
			JOINT LeftFoot
			{
				OFFSET -0.013596 -0.397961 -0.043693
				CHANNELS 3 Zrotation Yrotation Xrotation
				JOINT LeftToe
				{
					OFFSET 0.026358 -0.055791 0.119288
					CHANNELS 3 Zrotation Yrotation Xrotation
					End Site
					{
						OFFSET 0.000000 0.000000 0.000000
					}
				}
			}
		}
	}
	JOINT RightUpLeg
	{
		OFFSET -0.067670 -0.090522 -0.004320
		CHANNELS 3 Zrotation Yrotation Xrotation
		JOINT RightLeg
		{
			OFFSET -0.038290 -0.382569 -0.008850
			CHANNELS 3 Zrotation Yrotation Xrotation
			JOINT RightFoot
			{
				OFFSET 0.015774 -0.398415 -0.042312
				CHANNELS 3 Zrotation Yrotation Xrotation
				JOINT RightToe
				{
					OFFSET -0.025372 -0.048144 0.123348
					CHANNELS 3 Zrotation Yrotation Xrotation
					End Site
					{
						OFFSET 0.000000 0.000000 0.000000
					}
				}
			}
		}
	}
	JOINT Spine
	{
		OFFSET -0.002533 0.108963 -0.026696
		CHANNELS 3 Zrotation Yrotation Xrotation
		JOINT Spine1
		{
			OFFSET 0.005487 0.135180 0.001092
			CHANNELS 3 Zrotation Yrotation Xrotation
			JOINT Spine2
			{
				OFFSET 0.001457 0.052922 0.025425
				CHANNELS 3 Zrotation Yrotation Xrotation
				JOINT Neck
				{
					OFFSET -0.002778 0.213870 -0.042857
					CHANNELS 3 Zrotation Yrotation Xrotation
					JOINT Head
					{
						OFFSET 0.005152 0.064970 0.051349
						CHANNELS 3 Zrotation Yrotation Xrotation
						End Site
						{
							OFFSET 0.000000 0.000000 0.000000
						}
					}
				}
				JOINT LeftShoulder
				{
					OFFSET 0.078845 0.121749 -0.034090
					CHANNELS 3 Zrotation Yrotation Xrotation
					JOINT LeftArm
					{
						OFFSET 0.090977 0.030469 -0.008868
						CHANNELS 3 Zrotation Yrotation Xrotation
						JOINT LeftForeArm
						{
							OFFSET 0.259612 -0.012772 -0.027456
							CHANNELS 3 Zrotation Yrotation Xrotation
							JOINT LeftHand
							{
								OFFSET 0.249234 0.008986 -0.001171
								CHANNELS 3 Zrotation Yrotation Xrotation
								End Site
								{
									OFFSET 0.000000 0.000000 0.000000
								}
							}
						}
					}
				}
				JOINT RightShoulder
				{
					OFFSET -0.081759 0.118833 -0.038615
					CHANNELS 3 Zrotation Yrotation Xrotation
					JOINT RightArm
					{
						OFFSET -0.096012 0.032551 -0.009143
						CHANNELS 3 Zrotation Yrotation Xrotation
						JOINT RightForeArm
						{
							OFFSET -0.253742 -0.013329 -0.021401
							CHANNELS 3 Zrotation Yrotation Xrotation
							JOINT RightHand
							{
								OFFSET -0.255298 0.007772 -0.005559
								CHANNELS 3 Zrotation Yrotation Xrotation
								End Site
								{
									OFFSET 0.000000 0.000000 0.000000
								}
							}
						}
					}
				}
			}
		}
	}
}
MOTION
Frames: 10
Frame Time: 0.050000
0.000000 0.959515 0.000000 -0.133339 -2.831713 10.641870 3.447545 -0.695359 -9.838665 -0.163562 0.098191 -2.486077 2.522029 9.109944 15.688389 0.000000 0.000000 0.000000 -4.068618 1.190407 -14.519614 -2.902355 0.388973 1.605698 0.334179 -7.012492 18.984805 0.000000 0.000000 0.000000 5.289321 -0.673477 5.090877 0.034963 -0.024534 1.290289 -1.361487 4.436573 0.724314 7.642268 -5.119929 -4.456314 0.000000 0.000000 0.000000 1.180935 -31.995757 10.965866 -10.375427 -31.840636 0.099785 10.075598 -17.647976 -0.920591 0.000000 0.000000 0.000000 7.070317 27.590189 11.873739 39.586881 50.629803 13.573617 -19.351331 44.361672 -5.611784 0.000000 0.000000 0.000000 
0.000065 0.961772 0.005273 -0.549045 -3.900261 10.831472 3.190163 -0.668324 -9.297942 0.629028 0.046425 -2.995365 3.381758 10.410614 16.631216 0.000000 0.000000 0.000000 -3.633613 1.230665 -14.356192 -3.064406 0.409712 1.699755 1.205917 -5.611459 18.459121 0.000000 0.000000 0.000000 5.414331 -0.486311 2.822856 -0.229625 0.120246 0.304285 -2.797832 5.724390 2.175002 9.735358 -6.646712 -4.744955 0.000000 0.000000 0.000000 -2.980800 -30.336609 10.942180 -18.485300 -32.027981 1.634297 7.607834 -16.123876 -0.507890 0.000000 0.000000 0.000000 10.206040 25.085364 11.557002 46.374000 44.344027 13.494287 -12.835368 46.049564 -3.040571 0.000000 0.000000 0.000000 
0.000024 0.961804 0.011783 -0.388470 -2.980301 10.028055 3.005834 -0.572415 -7.502319 0.713081 0.087654 -4.134664 2.780893 9.623944 16.464968 0.000000 0.000000 0.000000 -3.900032 1.077497 -12.818393 -3.950682 0.452885 0.895125 2.621947 -3.617794 20.068507 0.000000 0.000000 0.000000 6.360914 -0.393037 1.376048 -0.905166 0.424431 1.151632 -4.521674 4.905494 1.823951 8.366308 -5.648474 -4.616174 0.000000 0.000000 0.000000 -7.484252 -29.300578 11.200369 -25.184545 -27.504484 2.203003 -1.166202 -16.050528 0.707173 0.000000 0.000000 0.000000 11.590567 22.119404 10.343701 51.770820 36.254563 11.466926 -0.098957 47.490572 2.242992 0.000000 0.000000 0.000000 
0.000285 0.961162 0.018210 -0.324414 -3.028792 10.412226 3.322099 -0.543992 -7.170485 -0.040512 0.164771 -4.720338 2.805113 9.630169 16.355906 0.000000 0.000000 0.000000 -4.068630 1.039747 -12.354426 -3.906025 0.397333 0.234663 2.677667 -3.317783 19.484150 0.000000 0.000000 0.000000 5.848734 -0.205139 -0.426451 -1.078671 0.508456 0.767638 -4.476746 4.380524 2.604105 8.677027 -5.173544 -8.178487 0.000000 0.000000 0.000000 -9.618473 -25.498845 9.887146 -32.869113 -20.575091 1.538452 -6.305108 -18.368471 1.616216 0.000000 0.000000 0.000000 12.148148 18.222547 8.349587 56.222908 29.644900 9.249123 9.043789 42.617116 5.329026 0.000000 0.000000 0.000000 
0.000669 0.960530 0.024343 -0.212114 -2.121133 9.711366 3.241785 -0.461974 -5.757377 -0.064950 0.189953 -5.400080 2.300737 8.930827 15.966251 0.000000 0.000000 0.000000 -3.571596 0.932695 -10.783929 -5.141254 0.446424 -0.741301 2.645703 -3.594077 20.598969 0.000000 0.000000 0.000000 5.537587 -0.023093 -2.169452 -0.942719 0.436644 1.048286 -5.150844 3.368091 3.784701 9.330934 -5.431028 -9.507566 0.000000 0.000000 0.000000 -12.221346 -22.654966 8.926133 -39.022029 -14.453784 0.062090 -9.945400 -16.668346 1.986989 0.000000 0.000000 0.000000 13.828380 14.633859 6.659584 58.222361 22.299120 5.632254 11.035946 35.542034 4.881388 0.000000 0.000000 0.000000 
0.001103 0.959950 0.029410 -0.237696 -2.855302 9.348070 3.093861 -0.412204 -5.021647 -0.000076 0.179566 -5.210826 2.715173 9.407206 15.721102 0.000000 0.000000 0.000000 -3.600219 0.892112 -10.177843 -5.244044 0.418555 -1.115356 3.113827 -3.153523 21.036487 0.000000 0.000000 0.000000 5.518860 0.014817 -2.446458 -1.091986 0.515271 0.733269 -5.117957 3.847849 4.325192 9.761955 -5.211741 -12.081202 0.000000 0.000000 0.000000 -13.621408 -19.659959 7.571598 -43.740240 -8.882860 -1.832413 -12.747045 -15.356369 2.189794 0.000000 0.000000 0.000000 15.093265 11.539439 5.199167 59.459987 15.957149 2.382518 10.142307 30.712732 3.889160 0.000000 0.000000 0.000000 
0.001561 0.958775 0.033025 -0.323099 -2.605524 8.990911 3.123525 -0.367461 -4.336533 0.075981 0.179733 -5.355899 2.647134 9.246043 15.231007 0.000000 0.000000 0.000000 -3.492552 0.833614 -9.398899 -5.370515 0.409687 -1.379178 3.088611 -3.095255 20.898373 0.000000 0.000000 0.000000 5.547375 0.094498 -3.248174 -1.033225 0.487530 0.503969 -5.159324 3.735876 5.126610 10.351964 -5.368988 -13.381824 0.000000 0.000000 0.000000 -15.135219 -16.635170 6.159083 -46.004385 -4.541148 -3.573533 -14.184941 -14.029048 2.164943 0.000000 0.000000 0.000000 15.988838 8.920283 3.896632 59.761412 11.547849 0.005621 7.531413 26.341660 2.686008 0.000000 0.000000 0.000000 
0.001790 0.957774 0.034963 -0.438037 -3.020885 8.746154 2.746021 -0.345262 -3.991180 0.822596 0.121752 -5.130741 2.952354 9.595655 14.878826 0.000000 0.000000 0.000000 -3.701870 0.805914 -9.078443 -5.204452 0.424172 -1.010975 3.792283 -1.576809 19.725451 0.000000 0.000000 0.000000 5.629773 0.119300 -3.439661 -1.296278 0.614087 0.363168 -4.993660 4.478932 4.947705 10.826311 -5.677537 -13.193229 0.000000 0.000000 0.000000 -15.505396 -15.335560 5.385522 -47.642752 -1.159867 -4.960537 -15.118761 -15.266615 2.472690 0.000000 0.000000 0.000000 16.172651 7.570240 3.297066 59.704972 9.055804 -1.260403 6.301123 24.533412 2.238788 0.000000 0.000000 0.000000 
0.001812 0.957112 0.035407 -0.543521 -2.631742 8.630930 3.082550 -0.344890 -4.025450 0.516035 0.132250 -4.882997 2.816680 9.367611 14.506234 0.000000 0.000000 0.000000 -3.508399 0.774966 -8.634968 -4.997968 0.409342 -1.000036 3.072672 -2.289371 18.655523 0.000000 0.000000 0.000000 5.916327 0.172824 -4.000259 -1.222267 0.576485 0.720441 -5.171043 4.549794 4.804277 10.475526 -5.510218 -12.753174 0.000000 0.000000 0.000000 -14.966756 -14.290519 4.768917 -48.479597 0.150984 -5.553503 -15.441093 -19.070002 3.145911 0.000000 0.000000 0.000000 16.036138 6.819989 2.964320 59.185334 7.802736 -1.872342 5.110350 23.338734 1.893785 0.000000 0.000000 0.000000 
0.001533 0.956982 0.034954 -0.416120 -2.009425 8.232780 3.050131 -0.312852 -3.514643 0.486680 0.148840 -5.243919 2.453283 8.874436 14.435748 0.000000 0.000000 0.000000 -3.635167 0.709487 -7.878500 -4.692935 0.399338 -0.849422 2.442891 -2.733863 17.317807 0.000000 0.000000 0.000000 5.756615 0.210678 -4.367740 -1.254441 0.589838 0.552158 -5.112485 4.721941 5.133796 11.007036 -5.852175 -12.704050 0.000000 0.000000 0.000000 -15.140120 -15.286689 5.158773 -46.885438 -1.819014 -4.603586 -16.209328 -24.311458 4.179183 0.000000 0.000000 0.000000 16.613777 6.678739 3.031282 58.111721 7.886750 -1.892522 4.436624 22.473500 1.706913 0.000000 0.000000 0.000000 
